<svg preserveAspectRatio="none" overflow="visible" style="display: block;" width="640.714" height="91.0159" viewBox="0 0 640.714 91.0159" fill="none" xmlns="http://www.w3.org/2000/svg">
<g id="L3HaRRIsTEchNOlOGIEs">
<path d="M0 12.6982C3.01482 12.5028 5.33205 13.6904 5.93555 16.6309C5.74902 16.6272 5.55834 16.6227 5.36523 16.6191C5.16019 16.6154 4.95072 16.613 4.73828 16.6094C4.2436 14.2122 2.51095 13.2449 0.18457 13.6133C0.168719 13.4679 0.147561 13.3189 0.118164 13.168C0.0862718 13.0043 0.04434 12.8482 0 12.6982Z" fill="white"/>
<path d="M309.315 0C309.43 6.45775 305.07 12.1227 298.645 14.2754C297.981 14.4976 297.306 14.7003 296.623 14.8867C296.716 14.6978 296.808 14.5105 296.895 14.3242C297.335 13.3789 297.711 12.3175 297.86 11.1836C303.77 9.80548 308.86 6.52179 309.315 0Z" fill="white"/>
<path d="M293.66 50.416C301.691 50.7563 302.839 60.1598 296.528 62.6523C295.61 62.9922 294.348 63.4452 293.086 63.1055C291.824 62.7656 291.021 61.6328 291.021 60.3867C291.021 58.8006 292.283 57.5537 293.89 57.5537C296.184 57.5541 297.446 59.9335 296.299 61.8594C302.035 58.8004 299.741 51.3234 293.774 51.5498C282.645 52.0033 270.942 87.6899 284.71 88.71C296.413 89.6161 304.56 75.3408 308.231 66.8438H309.149C304.101 78.2864 296.987 90.2956 284.366 90.1826C278.626 90.1233 275.121 87.3041 273.444 83.1914C273.571 82.0816 273.623 80.9438 273.661 80.4746C273.687 80.1476 273.714 79.7201 273.708 79.2715C273.703 78.9063 273.678 78.1413 273.428 77.3105C273.342 77.0256 273.032 76.1045 272.278 75.2363C272.864 63.736 281.545 49.8814 293.66 50.416Z" fill="white"/>
<path d="M329.446 20.96C338.97 8.15766 352.854 0.906194 369.146 1.35938C400.584 2.26601 402.764 33.6488 376.26 37.0479C361.229 38.9737 347.002 30.8162 334.151 24.0186C325.431 38.5203 320.726 51.8897 314.76 67.4111C318.89 60.047 325.546 50.5293 330.938 50.3027C335.298 50.1897 337.707 53.3621 337.822 56.9873C338.166 64.1248 333.119 73.9816 331.168 80.7793C330.135 84.2915 329.791 88.8232 334.381 88.8232C341.38 88.709 347.346 72.2818 349.526 66.8438H350.444C347.92 72.6217 342.412 89.7286 334.381 90.0693C328.529 90.2959 325.086 86.784 324.972 80.666C324.742 75.2277 331.857 62.7654 332.774 55.8545C333.004 53.9286 332.544 51.5501 330.25 51.5498C325.89 51.5498 318.431 62.6524 314.53 69.79C311.432 75.3414 308.678 83.2718 305.925 90.0693H299.155L309.712 62.1992C315.334 47.5842 320.268 34.4419 328.873 21.7529C320.5 17.2334 309.086 11.213 297.801 8.80371C297.632 7.92628 297.315 7.18044 296.928 6.55566C297.249 6.63286 297.572 6.71358 297.894 6.79785C309.597 9.97012 321.415 16.5415 329.446 20.96ZM369.146 2.26562C353.313 1.92574 342.756 10.31 334.725 23.1123C346.543 29.4568 362.492 38.5208 375.916 36.0283C396.798 32.0628 395.88 2.94569 369.146 2.26562Z" fill="white"/>
<path d="M348.523 49.7175H359.614L384.597 79.9817V56.7107C384.597 54.2308 384.316 52.6834 383.754 52.0684C383.01 51.2351 381.835 50.8185 380.228 50.8185H378.811V49.7175H393.036V50.8185H391.589C389.861 50.8185 388.636 51.3343 387.913 52.366C387.471 53.0008 387.25 54.449 387.25 56.7107V90.7244H386.165L359.222 58.2283V83.0765C359.222 85.5564 359.493 87.1038 360.035 87.7188C360.799 88.5521 361.974 88.9687 363.562 88.9687H365.008V90.0697H350.783V88.9687H352.2C353.948 88.9687 355.183 88.4529 355.907 87.4213C356.349 86.7864 356.57 85.3382 356.57 83.0765V55.0144C355.384 53.6456 354.48 52.7429 353.857 52.3064C353.254 51.87 352.36 51.4633 351.175 51.0863C350.592 50.9078 349.708 50.8185 348.523 50.8185V49.7175Z" fill="white"/>
<path d="M417.092 47.7366C422.532 47.7366 427.241 49.7816 431.218 53.8714C435.216 57.9409 437.214 63.0278 437.214 69.1321C437.214 75.4195 435.205 80.6386 431.187 84.7896C427.169 88.9405 422.305 91.0159 416.597 91.0159C410.827 91.0159 405.974 88.9913 402.039 84.9422C398.123 80.893 396.166 75.6535 396.166 69.2237C396.166 62.6514 398.432 57.2898 402.966 53.1389C406.902 49.5374 411.61 47.7366 417.092 47.7366ZM416.505 49.9647C412.754 49.9647 409.746 51.3381 407.479 54.0851C404.656 57.5035 403.244 62.509 403.244 69.1016C403.244 75.857 404.707 81.0558 407.633 84.698C409.879 87.4653 412.847 88.8489 416.535 88.8489C420.471 88.8489 423.717 87.333 426.272 84.3012C428.848 81.2694 430.136 76.4877 430.136 69.9562C430.136 62.8752 428.724 57.595 425.901 54.1156C423.635 51.3483 420.502 49.9647 416.505 49.9647Z" fill="white"/>
<path d="M500.728 1.35954C532.052 2.2659 534.347 33.6487 507.842 37.0476C492.811 38.9736 478.584 30.8163 465.733 24.0186C458.275 36.4811 454.374 46.5644 449.325 59.1401C447.031 65.1448 442.556 76.4743 441.638 82.2524C441.179 85.1981 441.294 88.8235 445.309 88.8235C452.309 88.5969 458.275 72.2824 460.455 66.8442H461.373C458.849 72.6223 453.341 89.7299 445.309 90.0697C440.376 90.2963 437.048 87.3507 436.589 82.7056C436.016 75.7945 440.49 64.2384 442.67 58.3471C448.063 44.2985 452.423 33.1955 460.455 21.7527C451.85 17.1076 440.031 10.8763 428.443 8.61044C420.296 6.91101 412.265 8.04396 405.725 12.5758C410.544 17.3342 412.953 24.3585 410.888 30.3631C407.56 39.9932 397.119 40.5597 395.398 30.703C394.251 24.4718 396.775 17.1076 401.709 12.1226C397.578 8.04396 392.071 6.23124 386.104 6.91101C377.269 7.81737 371.418 14.3885 369.123 23.6787C369.238 17.5608 373.712 7.2509 385.875 5.89135C392.071 5.21158 398.381 6.91101 403.43 10.6498C410.544 4.87169 419.952 4.30522 429.475 6.79772C441.179 9.96998 452.997 16.5411 461.029 20.9596C470.552 8.15726 484.435 0.906357 500.728 1.35954ZM408.019 30.2498C409.052 24.925 407.446 18.6937 403.659 14.0486C398.611 18.3538 395.398 24.925 396.316 30.703C397.349 38.1805 406.069 40.3331 408.019 30.2498ZM507.498 36.0279C528.38 32.0626 527.462 2.94567 500.728 2.2659C484.894 1.92602 474.338 10.3099 466.307 23.1122C478.125 29.4568 494.073 38.5204 507.498 36.0279Z" fill="white"/>
<path d="M483.344 47.7366C488.784 47.7366 493.493 49.7816 497.47 53.8714C501.468 57.9409 503.467 63.0278 503.467 69.1321C503.467 75.4195 501.457 80.6386 497.439 84.7896C493.421 88.9405 488.558 91.0159 482.85 91.0159C477.08 91.0159 472.227 88.9913 468.291 84.9422C464.375 80.893 462.418 75.6535 462.418 69.2237C462.418 62.6514 464.685 57.2898 469.218 53.1389C473.154 49.5374 477.863 47.7366 483.344 47.7366ZM482.757 49.9647C479.006 49.9647 475.998 51.3381 473.731 54.0851C470.908 57.5035 469.496 62.509 469.496 69.1016C469.496 75.857 470.959 81.0558 473.886 84.698C476.132 87.4653 479.099 88.8489 482.788 88.8489C486.724 88.8489 489.969 87.333 492.524 84.3012C495.1 81.2694 496.388 76.4877 496.388 69.9562C496.388 62.8752 494.977 57.595 492.154 54.1156C489.887 51.3483 486.754 49.9647 482.757 49.9647Z" fill="white"/>
<path d="M544.794 47.7366L545.875 60.7998H544.794C543.701 57.5442 542.29 55.0923 540.559 53.4441C538.066 51.0635 534.861 49.8731 530.946 49.8731C525.609 49.8731 521.549 51.9587 518.767 56.13C516.439 59.6501 515.274 63.8417 515.274 68.7048C515.274 72.6522 516.047 76.2537 517.593 79.5094C519.138 82.765 521.158 85.1558 523.651 86.6819C526.165 88.1876 528.741 88.9405 531.379 88.9405C532.924 88.9405 534.418 88.7472 535.861 88.3605C537.303 87.9739 538.694 87.4042 540.033 86.6514V74.687C540.033 72.6115 539.869 71.2584 539.539 70.6276C539.23 69.9765 538.735 69.4882 538.055 69.1626C537.396 68.8167 536.221 68.6438 534.531 68.6438V67.4839H550.759V68.6438H549.987C548.379 68.6438 547.277 69.1728 546.679 70.2309C546.267 70.9837 546.061 72.4691 546.061 74.687V87.3533C543.691 88.6149 541.352 89.5407 539.044 90.1308C536.736 90.7209 534.171 91.0159 531.348 91.0159C523.249 91.0159 517.098 88.4521 512.894 83.3245C509.741 79.4788 508.165 75.0431 508.165 70.0172C508.165 66.375 509.051 62.8854 510.823 59.5484C512.925 55.5806 515.81 52.5285 519.478 50.392C522.549 48.6217 526.175 47.7366 530.359 47.7366C531.883 47.7366 533.264 47.8587 534.501 48.1029C535.758 48.3471 537.53 48.8863 539.817 49.7205C540.971 50.1478 541.744 50.3615 542.135 50.3615C542.527 50.3615 542.857 50.1885 543.124 49.8426C543.413 49.4763 543.588 48.7744 543.65 47.7366H544.794Z" fill="white"/>
<path d="M569.956 88.9405V90.0697H551.997V88.9405H553.481C555.212 88.9405 556.469 88.4419 557.252 87.4449C557.746 86.7938 557.994 85.227 557.994 82.7446V56.0079C557.994 53.9121 557.86 52.5285 557.592 51.857C557.386 51.3483 556.963 50.9108 556.324 50.5446C555.418 50.0562 554.47 49.8121 553.481 49.8121H551.997V48.6828H569.956V49.8121H568.441C566.731 49.8121 565.484 50.3106 564.701 51.3076C564.186 51.9587 563.928 53.5255 563.928 56.0079V82.7446C563.928 84.8404 564.062 86.2241 564.33 86.8955C564.536 87.4042 564.969 87.8417 565.628 88.2079C566.515 88.6963 567.452 88.9405 568.441 88.9405H569.956Z" fill="white"/>
<path d="M583.465 50.9414V67.3008H592.676C595.066 67.3008 596.663 66.9447 597.467 66.2326C598.539 65.2966 599.136 63.6484 599.26 61.2881H600.404V75.6942H599.26C598.972 73.6798 598.683 72.3877 598.394 71.818C598.024 71.1058 597.416 70.5462 596.571 70.1393C595.726 69.7323 594.428 69.5289 592.676 69.5289H583.465V83.1719C583.465 85.0032 583.547 86.1223 583.712 86.5293C583.877 86.9159 584.166 87.2313 584.578 87.4754C584.99 87.6993 585.773 87.8112 586.927 87.8112H594.036C596.406 87.8112 598.127 87.6484 599.198 87.3228C600.27 86.9973 601.3 86.3563 602.289 85.4C603.567 84.1384 604.875 82.2359 606.215 79.6925H607.451L603.835 90.0697H571.534V88.9405H573.017C574.006 88.9405 574.944 88.7065 575.83 88.2385C576.489 87.9129 576.933 87.4246 577.159 86.7734C577.406 86.1223 577.53 84.7895 577.53 82.7751V55.8858C577.53 53.261 577.262 51.6434 576.726 51.0329C575.985 50.219 574.748 49.8121 573.017 49.8121H571.534V48.6828H603.835L604.298 57.7476H603.093C602.66 55.5704 602.176 54.0749 601.64 53.261C601.125 52.4471 600.352 51.8265 599.322 51.3992C598.498 51.094 597.045 50.9414 594.963 50.9414H583.465Z" fill="white"/>
<path d="M640.714 66.8442C633.944 84.1784 627.289 90.2963 612.947 90.183C606.636 90.183 602.735 85.9911 602.85 79.8732C602.964 77.0408 604.112 74.6616 605.374 71.9425C608.701 64.8049 613.865 55.2881 616.733 49.8499C618.684 46.2245 621.208 43.5054 625.683 43.732C632.338 43.8453 631.764 52.0025 625.683 51.5494C623.962 51.4361 622.585 50.4164 621.552 49.8499C620.061 48.9436 618.569 49.7366 618.684 51.4361C619.143 58.5737 625.339 66.0511 626.83 73.4153C627.978 78.8535 626.601 85.0847 619.028 88.8235C629.813 86.7842 634.632 80.0998 639.796 66.8442H640.714ZM612.717 89.2767C615.356 89.2767 617.422 88.1437 618.569 85.9911C623.503 77.1541 614.783 60.613 617.422 50.643C613.635 57.554 609.964 65.0315 606.521 71.4893C612.029 69.3367 613.406 75.4547 607.898 75.2281C605.948 75.2281 604.456 77.8339 604.227 79.7599C603.538 85.0848 607.095 89.2767 612.717 89.2767Z" fill="white"/>
</g>
</svg>
